<?xml version="1.0" encoding="UTF-8" standalone="no"?>
<!-- Created with Inkscape (http://www.inkscape.org/) -->

<svg
   width="151"
   height="131"
   id="svg2"
   version="1.1"
   inkscape:version="1.1.2 (0a00cf5339, 2022-02-04)"
   sodipodi:docname="LogoNew.svg"
   xmlns:inkscape="http://www.inkscape.org/namespaces/inkscape"
   xmlns:sodipodi="http://sodipodi.sourceforge.net/DTD/sodipodi-0.dtd"
   xmlns="http://www.w3.org/2000/svg"
   xmlns:svg="http://www.w3.org/2000/svg"
   xmlns:rdf="http://www.w3.org/1999/02/22-rdf-syntax-ns#"
   xmlns:cc="http://creativecommons.org/ns#"
   xmlns:dc="http://purl.org/dc/elements/1.1/">
  <defs
     id="defs4" />
  <sodipodi:namedview
     id="base"
     pagecolor="#ffffff"
     bordercolor="#666666"
     borderopacity="1.0"
     inkscape:pageopacity="0.0"
     inkscape:pageshadow="2"
     inkscape:zoom="5.6036585"
     inkscape:cx="62.548423"
     inkscape:cy="55.499456"
     inkscape:document-units="px"
     inkscape:current-layer="layer5"
     showgrid="false"
     inkscape:window-width="1920"
     inkscape:window-height="1043"
     inkscape:window-x="0"
     inkscape:window-y="0"
     inkscape:window-maximized="1"
     inkscape:object-nodes="true"
     inkscape:snap-bbox="false"
     inkscape:snap-object-midpoints="true"
     inkscape:object-paths="false"
     inkscape:snap-intersection-paths="true"
     inkscape:snap-midpoints="true"
     fit-margin-top="0"
     fit-margin-left="0"
     fit-margin-right="0"
     fit-margin-bottom="0"
     inkscape:snap-nodes="true"
     inkscape:snap-global="true"
     inkscape:pagecheckerboard="0" />
  <metadata
     id="metadata7">
    <rdf:RDF>
      <cc:Work
         rdf:about="">
        <dc:format>image/svg+xml</dc:format>
        <dc:type
           rdf:resource="http://purl.org/dc/dcmitype/StillImage" />
      </cc:Work>
    </rdf:RDF>
  </metadata>
  <g
     inkscape:groupmode="layer"
     id="layer5"
     inkscape:label="Small Logo"
     style="display:inline"
     transform="translate(-667.32992,-514.90787)">
    <path
       style="display:inline;fill:#00665a;fill-opacity:1;fill-rule:nonzero;stroke:#000000;stroke-width:0.00512002;stroke-linecap:round;stroke-linejoin:round;stroke-miterlimit:4;stroke-dasharray:none;stroke-opacity:1"
       d="M 31.266784,102.76446 C 30.543085,101.8513 4.8937612,57.547875 2.4398339,52.972404 2.284205,52.682226 8.8081714,40.982226 16.937537,26.972404 L 31.718202,1.5 61.724147,1.2355381 91.730093,0.97107625 106.36505,26.316868 C 114.41427,40.257054 121,52.084305 121,52.599648 c 0,0.515343 -6.48913,12.178745 -14.42029,25.91867 L 92.159413,103.5 62.214154,103.76446 c -23.20037,0.2049 -30.170975,-0.0203 -30.94737,-1 z"
       id="path3941-11"
       inkscape:connector-curvature="0"
       transform="matrix(0.1767767,0,0,0.1767767,731.78874,617.36567)" />
    <path
       style="display:inline;fill:#00665a;fill-opacity:1;fill-rule:nonzero;stroke:#000000;stroke-width:0.00512002;stroke-linecap:round;stroke-linejoin:round;stroke-miterlimit:4;stroke-dasharray:none;stroke-opacity:1"
       d="M 30.634707,101.75 C 29.858438,100.5125 23.099051,88.891193 15.613847,75.924873 L 2.004385,52.349745 16.752192,26.697555 31.5,1.0453656 61.656326,1.0226828 91.812651,1 105.84799,25.25 c 7.71944,13.3375 14.32239,25.005307 14.67321,25.928459 0.42231,1.111233 -4.35148,10.320225 -14.12595,27.25 L 91.631434,104 l -29.792664,0 -29.792664,0 -1.411399,-2.25 0,0 z"
       id="path3943-24"
       inkscape:connector-curvature="0"
       transform="matrix(0.1767767,0,0,0.1767767,763.78532,562.03455)" />
    <path
       style="display:inline;fill:#00665a;fill-opacity:1;fill-rule:nonzero;stroke:#000000;stroke-width:0.00512002;stroke-linecap:round;stroke-linejoin:round;stroke-miterlimit:4;stroke-dasharray:none;stroke-opacity:1"
       d="M 28.181598,97.25 C 26.032956,93.5375 19.863812,82.85 14.47239,73.5 9.0809678,64.15 4.0873166,55.594292 3.3753873,54.487316 c -1.1620237,-1.806827 0.214314,-4.619534 13.4565367,-27.5 L 31.582877,1.5 l 30.356798,0 30.356798,0 14.678647,25.389559 14.67864,25.389558 L 106.72945,78.139559 91.805133,104 61.946677,104 32.08822,104 28.181598,97.25 Z"
       id="path3945-4"
       inkscape:connector-curvature="0"
       transform="matrix(0.1767767,0,0,0.1767767,699.79215,562.03455)" />
    <path
       style="display:inline;fill:#008c81;fill-opacity:1;fill-rule:nonzero;stroke:#000000;stroke-width:0.00512002;stroke-linecap:round;stroke-linejoin:round;stroke-miterlimit:4;stroke-dasharray:none;stroke-opacity:1"
       d="M 16.647274,78.536276 C 8.5912731,64.531228 2,52.803314 2,52.474245 2,52.145176 8.6244745,40.428851 16.721054,26.437969 L 31.442109,1 61.471054,1.0182338 91.5,1.0364675 106,26.268234 c 7.975,13.877471 14.5,25.696273 14.5,26.264003 0,0.56773 -6.525,12.371814 -14.5,26.231297 L 91.5,103.96259 61.397274,103.9813 31.294547,104 16.647274,78.536276 Z"
       id="path3947-19"
       inkscape:connector-curvature="0"
       transform="matrix(0.1767767,0,0,0.1767767,715.87883,571.22694)" />
    <path
       style="display:inline;fill:#008c81;fill-opacity:1;fill-rule:nonzero;stroke:#000000;stroke-width:0.00512002;stroke-linecap:round;stroke-linejoin:round;stroke-miterlimit:4;stroke-dasharray:none;stroke-opacity:1"
       d="M 16.626603,78.66867 C 8.5819714,64.736438 2,52.971306 2,52.523933 2,52.076559 8.5933177,40.300658 16.651817,26.355263 L 31.303634,1 61.401817,1.0373242 91.5,1.0746483 105.91667,26.225061 c 7.92916,13.832728 14.41666,25.672625 14.41666,26.310883 0,0.638259 -6.4875,12.464971 -14.41666,26.281583 L 91.5,103.93864 61.376603,103.96932 31.253206,104 16.626603,78.66867 Z"
       id="path3949-33"
       inkscape:connector-curvature="0"
       transform="matrix(0.1767767,0,0,0.1767767,747.87541,571.22694)" />
    <path
       style="display:inline;fill:#008c81;fill-opacity:1;fill-rule:nonzero;stroke:#000000;stroke-width:0.00512002;stroke-linecap:round;stroke-linejoin:round;stroke-miterlimit:4;stroke-dasharray:none;stroke-opacity:1"
       d="M 28.173546,97.25 C 26.020476,93.5375 19.412999,82.175 13.490264,72 7.5675289,61.825 2.7092826,53.002689 2.6941608,52.394863 2.679039,51.787038 9.1541667,39.977666 17.083333,26.151814 L 31.5,1.0139002 61.901095,1.2569501 92.30219,1.5 106.6511,26.36327 C 114.54299,40.038068 121,51.641892 121,52.149546 c 0,0.507654 -6.59127,12.381682 -14.64727,26.38673 L 91.705453,104 61.896837,104 32.08822,104 28.173546,97.25 Z"
       id="path3951-9"
       inkscape:connector-curvature="0"
       transform="matrix(0.1767767,0,0,0.1767767,731.78874,598.98088)" />
    <path
       style="display:inline;fill:#003380;fill-opacity:1;fill-rule:nonzero;stroke:#000000;stroke-width:0.00512002;stroke-linecap:round;stroke-linejoin:round;stroke-miterlimit:4;stroke-dasharray:none;stroke-opacity:1"
       d="M 17.062488,79.824145 C 9.121856,65.997705 2.596856,53.968501 2.5624878,53.092581 2.5281195,52.216662 9.025,40.140556 17,26.25679 L 31.5,1.0135804 61.443584,1.2567902 91.387168,1.5 106.24964,27.23197 121.11212,52.963939 106.21275,78.73197 91.313377,104.5 61.406688,104.73156 31.5,104.96313 17.062488,79.824145 Z"
       id="path3953-40"
       inkscape:connector-curvature="0"
       transform="matrix(0.1767767,0,0,0.1767767,715.87883,589.61172)" />
    <path
       style="display:inline;fill:#003380;fill-opacity:1;fill-rule:nonzero;stroke:#000000;stroke-width:0.00512002;stroke-linecap:round;stroke-linejoin:round;stroke-miterlimit:4;stroke-dasharray:none;stroke-opacity:1"
       d="M 26.664665,94.75 C 9.2785744,64.972468 2.7111841,53.381737 2.6902375,52.437737 2.6772735,51.853493 9.1541667,40.052714 17.083333,26.213785 L 31.5,1.0520953 61.868516,1.2760476 92.237031,1.5 106.61852,26.479926 C 114.52833,40.218885 121,51.871517 121,52.374663 c 0,0.503146 -6.59332,12.324679 -14.65182,26.270074 L 91.696366,104 l -29.81547,0 -29.81547,0 -5.400761,-9.25 0,0 z"
       id="path3955-440"
       inkscape:connector-curvature="0"
       transform="matrix(0.1767767,0,0,0.1767767,731.78874,562.03455)" />
    <path
       style="display:inline;fill:#003380;fill-opacity:1;fill-rule:nonzero;stroke:#000000;stroke-width:0.00512002;stroke-linecap:round;stroke-linejoin:round;stroke-miterlimit:4;stroke-dasharray:none;stroke-opacity:1"
       d="M 17,79.782942 C 9.025,65.914271 2.5,53.843413 2.5,52.958812 2.5,52.074211 9.025,40.022467 17,26.177159 L 31.5,1.0038729 61.371857,1.2519364 91.243713,1.5 106.14514,27.251022 121.04657,53.002044 106.12464,78.751022 91.202708,104.5 61.351354,104.74935 31.5,104.99871 17,79.782942 Z"
       id="path3957-8"
       inkscape:connector-curvature="0"
       transform="matrix(0.1767767,0,0,0.1767767,747.87541,589.61172)" />
    <path
       style="display:inline;fill:#0044aa;fill-opacity:1;fill-rule:nonzero;stroke:#000000;stroke-width:0.00512002;stroke-linecap:round;stroke-linejoin:round;stroke-miterlimit:4;stroke-dasharray:none;stroke-opacity:1"
       d="M 28.692695,98.25 C 26.794033,95.0875 20.012005,83.419826 13.621523,72.321834 L 2.0024633,52.143669 16.751232,26.577297 31.5,1.0109256 61.849837,1.2554628 92.199674,1.5 106.59984,26.412806 C 114.51993,40.11485 121,51.714926 121,52.190755 c 0,0.475828 -6.62431,12.327565 -14.7207,26.337193 L 91.558607,104 l -29.7069,0 -29.7069,0 -3.452112,-5.75 0,0 z"
       id="path3959-49"
       inkscape:connector-curvature="0"
       transform="matrix(0.1767767,0,0,0.1767767,763.78532,598.98088)" />
    <path
       style="display:inline;fill:#0044aa;fill-opacity:1;fill-rule:nonzero;stroke:#000000;stroke-width:0.00512002;stroke-linecap:round;stroke-linejoin:round;stroke-miterlimit:4;stroke-dasharray:none;stroke-opacity:1"
       d="M 17.160121,78.915274 2.1050181,52.830547 16.94289,27.165274 31.780762,1.5 61.734806,1.2355689 91.688851,0.97113775 106.40459,26.55389 c 8.09366,14.070514 14.57617,26.162955 14.40558,26.872091 C 120.63958,54.135117 113.975,66.027636 106,79.853801 L 91.5,104.99228 61.857612,104.99614 32.215223,105 17.160121,78.915274 Z"
       id="path3961-53"
       inkscape:connector-curvature="0"
       transform="matrix(0.1767767,0,0,0.1767767,731.78874,543.473)" />
    <path
       style="display:inline;fill:#0044aa;fill-opacity:1;fill-rule:nonzero;stroke:#000000;stroke-width:0.00512002;stroke-linecap:round;stroke-linejoin:round;stroke-miterlimit:4;stroke-dasharray:none;stroke-opacity:1"
       d="M 23.916169,89.75 C 19.387277,81.9125 12.647012,70.265677 8.9378004,63.868171 L 2.1937801,52.236342 16.84689,26.648542 31.5,1.0607426 61.940604,1.2803713 92.381209,1.5 106.62646,26 c 7.83489,13.475 14.27411,25.124744 14.30939,25.888319 0.0353,0.763576 -6.51865,12.801076 -14.5643,26.75 L 91.743104,104 61.94681,104 32.150517,104 23.916169,89.75 Z"
       id="path3963-50"
       inkscape:connector-curvature="0"
       transform="matrix(0.1767767,0,0,0.1767767,699.79215,598.98088)" />
    <path
       style="display:inline;fill:#0055d4;fill-opacity:1;fill-rule:nonzero;stroke:#000000;stroke-width:0.00512002;stroke-linecap:round;stroke-linejoin:round;stroke-miterlimit:4;stroke-dasharray:none;stroke-opacity:1"
       d="M 17,78.861666 C 9.025,65.039827 2.3578016,53.364968 2.1840035,52.917535 2.0102054,52.470102 8.5221799,40.605616 16.655058,26.55201 L 31.442109,1 61.495276,1 91.548443,1 106.02422,26.111251 C 113.9859,39.922438 120.5,51.750053 120.5,52.394839 c 0,0.644786 -6.525,12.514285 -14.5,26.376665 l -14.5,25.204326 -30,0.008 -30,0.008 L 17,78.861666 Z"
       id="path3965-19"
       inkscape:connector-curvature="0"
       transform="matrix(0.1767767,0,0,0.1767767,683.88225,608.17327)" />
    <path
       style="display:inline;fill:#0055d4;fill-opacity:1;fill-rule:nonzero;stroke:#000000;stroke-width:0.00512002;stroke-linecap:round;stroke-linejoin:round;stroke-miterlimit:4;stroke-dasharray:none;stroke-opacity:1"
       d="M 31.2892,103.76467 C 30.750174,103.0691 23.88502,91.350152 16.0333,77.72256 L 1.7574466,52.945119 14.573245,30.72256 C 21.621934,18.500152 28.314008,6.8162118 29.444521,4.7582485 L 31.5,1.016497 l 30,0.018235 30,0.018235 6.055391,10.723517 c 3.330469,5.897934 10.011009,17.563275 14.845659,25.92298 L 121.19132,52.898929 106.28926,78.699464 91.387194,104.5 61.82822,104.76467 c -22.900887,0.20506 -29.779728,-0.0202 -30.53902,-1 z"
       id="path3967-36"
       inkscape:connector-curvature="0"
       transform="matrix(0.1767767,0,0,0.1767767,683.88225,626.55806)" />
    <path
       style="display:inline;fill:#0055d4;fill-opacity:1;fill-rule:nonzero;stroke:#000000;stroke-width:0.00512002;stroke-linecap:round;stroke-linejoin:round;stroke-miterlimit:4;stroke-dasharray:none;stroke-opacity:1"
       d="M 17.256308,78.081929 2.2973926,52.163859 16.941299,26.831929 31.585205,1.5 l 30.44641,0 30.44641,0 14.641355,25.36948 14.64136,25.36948 -8.49815,14.63052 C 108.58861,74.916266 101.85488,86.5625 98.298739,92.75 L 91.833031,104 62.024127,104 32.215223,104 17.256308,78.081929 Z"
       id="path3969-21"
       inkscape:connector-curvature="0"
       transform="matrix(0.1767767,0,0,0.1767767,667.79557,598.98088)" />
    <path
       style="display:inline;fill:#0055d4;fill-opacity:1;fill-rule:nonzero;stroke:#000000;stroke-width:0.00512002;stroke-linecap:round;stroke-linejoin:round;stroke-miterlimit:4;stroke-dasharray:none;stroke-opacity:1"
       d="M 17,79.853801 C 9.025,66.027636 2.3609346,54.137763 2.1909658,53.431861 2.020997,52.72596 8.5365349,40.633568 16.669939,26.55988 L 31.457946,0.97135664 61.330327,1.2356783 91.202708,1.5 106.0822,27.175753 120.9617,52.851507 105.89082,78.925753 90.819939,105 61.15997,104.99614 31.5,104.99228 17,79.853801 Z"
       id="path3971-3"
       inkscape:connector-curvature="0"
       transform="matrix(0.1767767,0,0,0.1767767,779.872,626.55806)" />
    <path
       style="display:inline;fill:#0055d4;fill-opacity:1;fill-rule:nonzero;stroke:#000000;stroke-width:0.00512002;stroke-linecap:round;stroke-linejoin:round;stroke-miterlimit:4;stroke-dasharray:none;stroke-opacity:1"
       d="M 16.636788,78.652778 C 8.5865546,64.695901 2.0026659,52.876895 2.0059242,52.388319 2.0091825,51.899744 8.4963529,40.25 16.421858,26.5 L 30.831868,1.5 61.165934,1.2730747 91.5,1.0461493 103,21.15946 c 6.325,11.062321 12.94055,22.639798 14.70123,25.727727 l 3.20122,5.614415 L 106.13644,78.000801 91.370423,103.5 61.321999,103.76446 31.273576,104.02892 16.636788,78.652778 Z"
       id="path3973-49"
       inkscape:connector-curvature="0"
       transform="matrix(0.1767767,0,0,0.1767767,779.872,608.17327)" />
    <path
       style="display:inline;fill:#0055d4;fill-opacity:1;fill-rule:nonzero;stroke:#000000;stroke-width:0.00512002;stroke-linecap:round;stroke-linejoin:round;stroke-miterlimit:4;stroke-dasharray:none;stroke-opacity:1"
       d="M 31.278512,102.75 C 30.747004,102.0625 23.924316,90.400559 16.116983,76.834577 L 1.9218326,52.169153 16.694592,26.584577 31.467351,1 61.645725,1 91.824099,1 106.10615,25.718727 c 7.85513,13.5953 14.3072,25.414367 14.33795,26.264593 0.0307,0.850226 -6.4691,12.900063 -14.4441,26.777415 l -14.5,25.231545 -29.627555,0.004 c -22.523744,0.003 -29.859264,-0.29585 -30.593933,-1.24614 l 0,-1.4e-4 z"
       id="path3975-6"
       inkscape:connector-curvature="0"
       transform="matrix(0.1767767,0,0,0.1767767,795.7819,598.98088)" />
    <path
       style="display:inline;fill:#0055d4;fill-opacity:1;fill-rule:nonzero;stroke:#000000;stroke-width:0.00512002;stroke-linecap:round;stroke-linejoin:round;stroke-miterlimit:4;stroke-dasharray:none;stroke-opacity:1"
       d="M 16.652332,79.376269 C 3.3967677,56.474793 1.9211152,53.468549 2.8906738,51.3406 4.291861,48.265329 29.916156,3.9024432 31.254204,2.2353267 c 0.785785,-0.979036 7.664167,-1.2048946 30.454369,-1 L 91.147901,1.5 106.0848,27.346291 121.02171,53.192582 106.20444,78.846291 91.387168,104.5 61.443584,104.7642 31.5,105.0284 16.652332,79.376269 Z"
       id="path3977-73"
       inkscape:connector-curvature="0"
       transform="matrix(0.1767767,0,0,0.1767767,747.87541,515.71906)" />
    <path
       style="display:inline;fill:#0055d4;fill-opacity:1;fill-rule:nonzero;stroke:#000000;stroke-width:0.00512002;stroke-linecap:round;stroke-linejoin:round;stroke-miterlimit:4;stroke-dasharray:none;stroke-opacity:1"
       d="M 30.633906,101.75 C 29.619276,100.13343 8.9810283,64.407634 2.4419844,52.948429 c -0.1731107,-0.303364 6.2950077,-12.003364 14.3735966,-26 L 31.503924,1.5 l 30.327307,0 30.327308,0 14.420731,24.981682 C 114.51067,40.221607 121,51.876063 121,52.380473 c 0,0.50441 -6.56793,12.325153 -14.59539,26.268318 L 91.809221,104 l -29.881558,0 -29.881557,0 -1.4122,-2.25 0,0 z"
       id="path3979-11"
       inkscape:connector-curvature="0"
       transform="matrix(0.1767767,0,0,0.1767767,731.78874,525.08823)" />
    <path
       style="display:inline;fill:#0055d4;fill-opacity:1;fill-rule:nonzero;stroke:#000000;stroke-width:0.00512002;stroke-linecap:round;stroke-linejoin:round;stroke-miterlimit:4;stroke-dasharray:none;stroke-opacity:1"
       d="M 17,79.865241 C 9.025,66.032784 2.3877928,54.216872 2.2506506,53.60766 2.1135084,52.998447 8.6393913,41.025 16.752613,27 l 14.751311,-25.5 29.848954,0 29.848955,0 14.958687,25.811646 14.95869,25.811646 -14.8178,25.688354 L 91.483616,104.5 61.491808,104.75758 31.5,105.01516 17,79.865241 Z"
       id="path3981-4"
       inkscape:connector-curvature="0"
       transform="matrix(0.1767767,0,0,0.1767767,715.87883,515.71906)" />
    <path
       style="display:inline;fill:#00b2b2;fill-opacity:1;fill-rule:nonzero;stroke:#000000;stroke-width:0.00512002;stroke-linecap:round;stroke-linejoin:round;stroke-miterlimit:4;stroke-dasharray:none;stroke-opacity:1"
       d="M 16.647274,78.536276 C 8.5912731,64.531228 2,52.785838 2,52.435408 2,52.084978 8.590589,40.368654 16.645753,26.399132 L 31.291507,1 61.395753,1.0182338 91.5,1.0364675 105.91667,26.163097 c 7.92916,13.819646 14.41666,25.672215 14.41666,26.339041 0,0.666827 -6.4875,12.508893 -14.41666,26.315703 L 91.5,103.92113 61.397274,103.96057 31.294547,104 16.647274,78.536276 Z"
       id="path5069-4"
       inkscape:connector-curvature="0"
       transform="matrix(0.1767767,0,0,0.1767767,731.87938,580.46737)" />
    <g
       id="g5068">
      <path
         inkscape:connector-curvature="0"
         d="m -2308,-1163.6378 120,0 m 0,0 60,103.923 m -1e-4,0 -60,103.92305 m 1e-4,10e-6 -120,0 m 0,3e-5 -60,-103.92309 m 0,10e-5 60,-103.9231 m 0,207.84611 120,0 m 0,0 60,103.923 m -1e-4,0 -60,103.92305 m 1e-4,10e-6 -120,0 m 0,3e-5 -60,-103.92309 m 0,10e-5 60,-103.9231 m 0,207.84605 120,0 m 0,0 60,103.923 m -1e-4,0 -60,103.92305 m 1e-4,1e-5 -120,0 m 0,3e-5 -60,-103.92309 m 0,10e-5 60,-103.9231 m 0,207.84611 120,0 m 0,0 60,103.923 m -1e-4,0 -60,103.92305 m 1e-4,1e-5 -120,0 m 0,3e-5 -60,-103.92309 m 0,1e-4 60,-103.9231 m 180.0001,519.615255 120,0 m 0,0 60,103.923 m -10e-5,0 -60,103.923055 m 10e-5,1e-5 -120,0 m 0,3e-5 -60,-103.923095 m 0,10e-5 60,-103.9231 M -2308,-332.25342 l 120,0 m 0,0 60,103.923 m -1e-4,0 -60,103.92305 m 1e-4,1e-5 -120,0 m 0,3e-5 -60,-103.92309 m 0,1e-4 60,-103.9231 m 0,207.84611 120,0 m 0,0 60,103.923002 m -1e-4,0 -60,103.92305 m 1e-4,10e-6 -120,0 m 0,3e-5 -60,-103.92309 m 0,10e-5 60,-103.923102 m -180,103.923078 120,0 m 0,0 60,103.923 m -1e-4,0 -60,103.923052 m 1e-4,1e-5 -120,0 m 0,3e-5 -60,-103.923092 m 0,1e-4 60,-103.9231 m -180,-311.769238 -60,-103.92305 m 0,0 60,-103.92302 m 0,8e-5 120,0 m 0,-9e-5 60,103.92305 m 0,-2e-5 -60.0001,103.92307 m 1e-4,-5e-5 -120,3e-5 m 180,-103.92306 -60,-103.92304 m 0,0 60,-103.92303 m 0,9e-5 120,0 m 0,-9e-5 60,103.92304 m 0,-10e-6 -60,103.92307 m 0,-5e-5 -120,2e-5 m 180,-103.92302 -60,-103.92305 m 0,0 59.9999,-103.92302 m 1e-4,8e-5 120,0 m -1e-4,-9e-5 60,103.92305 m 1e-4,-2e-5 -60.0001,103.92307 m 1e-4,-5e-5 -120,3e-5 m 180,-103.92306 -60,-103.92304 m 0,0 59.9999,-103.92303 m 1e-4,9e-5 120,0 m -10e-5,-9e-5 60,103.92305 m 10e-5,-2e-5 -60.0001,103.92307 m 10e-5,-5e-5 -120,2e-5 m 359.9999,-415.69229 -60,-103.923 m 0,0 60,-103.9231 m 0,10e-5 120,0 m 0,-10e-5 60,103.9231 m 0,0 -60,103.923 m 10e-5,0 -120.0001,0 M -1948,-747.94566 l -60,-103.92305 m 0,0 59.9999,-103.92302 m 10e-5,9e-5 120,-10e-6 m -10e-5,-9e-5 60,103.92305 m 10e-5,-10e-6 -60.0001,103.92306 m 10e-5,-5e-5 -120,3e-5 m 180,-103.92305 -60,-103.92305 m 0,0 60,-103.92304 m 0,10e-5 120,0 m 0,-10e-5 60,103.92306 m 0,-2e-5 -60.0001,103.92307 m 10e-5,-5e-5 -120,3e-5 m 180,103.92303 -60,-103.92305 m 0,0 60,-103.92302 m 0,8e-5 120,0 m 0,-9e-5 60,103.92305 m 0,-2e-5 -60,103.92307 m 10e-5,-5e-5 -120.0001,3e-5 m -239.9999,415.6921 60,-103.92306 m 0,0 -60,-103.92301 m -10e-5,9e-5 -120,3e-5 m 10e-5,-1e-4 -60,103.92307 m 0,-2e-5 60.0001,103.92306 m -10e-5,-5e-5 120,-10e-6 m -180,-103.92301 59.9999,-103.92306 m 0,0 -59.9999,-103.92301 m -10e-5,9e-5 -120,3e-5 m 1e-4,-9e-5 -60,103.92306 m 0,-2e-5 60,103.92306 m -1e-4,-5e-5 120.0001,-10e-6 m -180,-103.92298 60,-103.92306 m 0,0 -60,-103.92301 m -1e-4,9e-5 -120,3e-5 m 1e-4,-9e-5 -60,103.92306 m 0,-2e-5 60,103.92306 m -1e-4,-5e-5 120.0001,-10e-6 m -180,-103.92301 59.9999,-103.92306 m 0,0 -60,-103.92301 m 0,9e-5 -120,3e-5 m 0,-9e-5 -59.9999,103.92306 m -1e-4,-10e-6 60.0001,103.92305 m -1e-4,-5e-5 120.0001,-10e-6 M -2728,-1059.7148 l 60,-103.923 m 0,0 -60,-103.923 m -1e-4,0 -120,10e-5 m 1e-4,-10e-5 -60,103.923 m 0,0 60,103.9231 m -1e-4,-10e-5 120.0001,0 m 180,311.76922 60,-103.92307 m 0,0 -60,-103.92301 m 0,9e-5 -120,3e-5 m 0,-9e-5 -60,103.92306 m 0,-10e-6 60.0001,103.92305 m -1e-4,-5e-5 120,0 m -180,-103.92301 60,-103.92307 m 0,0 -60,-103.92304 m -1e-4,10e-5 -120,10e-5 m 1e-4,-10e-5 -60,103.92302 m 0,-1e-5 60,103.92305 m -1e-4,-5e-5 120.0001,0 m -180,103.92308 60,-103.92307 m 0,0 -60,-103.92301 m -1e-4,9e-5 -120,3e-5 m 1e-4,-9e-5 -60,103.92306 m 0,-10e-6 60,103.92305 m -1e-4,-5e-5 120.0001,0"
         style="display:inline;fill:none;stroke:#000000;stroke-width:16.88521957;stroke-linecap:round;stroke-linejoin:round;stroke-miterlimit:4;stroke-dasharray:none;stroke-opacity:1;fill-opacity:1;stroke-dashoffset:0"
         transform="matrix(0.08883509,0,0,-0.08883509,942.42086,532.53185)"
         id="path3259-7" />
    </g>
  </g>
  <g
     inkscape:groupmode="layer"
     id="layer3"
     inkscape:label="HEXACORE 1"
     style="display:none"
     transform="translate(-667.32992,-514.90787)">
    <path
       id="path4975"
       style="fill:none;stroke:#000000;stroke-width:1px;stroke-linecap:butt;stroke-linejoin:miter;stroke-opacity:1"
       d="m 238.05945,567.02021 -9.99016,-34.60711 m 0,86.5177 9.99017,-34.60707 m -69.93138,-2e-5 9.99021,34.60709 m 0,-86.5177 -9.99021,34.60706 m 0,17.30355 69.93138,2e-5 m -1e-5,-17.30352 -69.93137,-5e-5 m 72.42891,-12.9776 m 12.48778,21.62942 -24.97548,43.25887 m 24.97544,-43.25887 -24.97548,-43.25883 m -49.95096,-5e-5 -24.97552,43.25888 m 0,-5e-5 24.97552,43.25887"
       inkscape:connector-curvature="0" />
    <path
       id="path3618"
       style="fill:none;stroke:#000000;stroke-width:1px;stroke-linecap:butt;stroke-linejoin:miter;stroke-opacity:1"
       d="m 321.72744,581.07943 12.48773,27.03675 m -12.48776,-37.85147 12.48774,-27.03679 m -12.48771,37.85151 56.19483,-5.40736 m -56.19486,-5.40736 56.19486,5.40736 m 2e-5,43.25883 -43.70712,-10.81472 m -2e-5,-64.88826 43.7071,-10.81467 m -49.95096,86.51765 49.951,0 m 0,-86.5177 -49.951,0 m 0,0 -24.97552,43.25888 m 0,-5e-5 24.97552,43.25887"
       inkscape:connector-curvature="0" />
    <path
       transform="translate(899.11792,3.1864016e-4)"
       inkscape:connector-curvature="0"
       id="path3618-7"
       style="display:inline;fill:none;stroke:#000000;stroke-width:1px;stroke-linecap:butt;stroke-linejoin:miter;stroke-opacity:1"
       d="m 321.72744,581.07943 12.48773,27.03675 m -12.48776,-37.85147 12.48774,-27.03679 m -12.48771,37.85151 56.19483,-5.40736 m -56.19486,-5.40736 56.19486,5.40736 m 2e-5,43.25883 -43.70712,-10.81472 m -2e-5,-64.88826 43.7071,-10.81467 m -49.95096,86.51765 49.951,0 m 0,-86.5177 -49.951,0 m 0,0 -24.97552,43.25888 m 0,-5e-5 24.97552,43.25887" />
    <path
       style="fill:none;stroke:#000000;stroke-width:1px;stroke-linecap:butt;stroke-linejoin:miter;stroke-opacity:1"
       d="m 971.09027,543.22816 -37.46321,-4e-5"
       id="path4170"
       inkscape:connector-curvature="0" />
    <path
       style="fill:none;stroke:#000000;stroke-width:1px;stroke-linecap:butt;stroke-linejoin:miter;stroke-opacity:1"
       d="m 933.62706,543.22812 -18.73163,32.44414"
       id="path4168"
       inkscape:connector-curvature="0" />
    <path
       style="fill:none;stroke:#000000;stroke-width:1px;stroke-linecap:butt;stroke-linejoin:miter;stroke-opacity:1"
       d="m 914.89543,575.67225 18.73163,32.44414 -18.73163,-32.44414"
       id="path4166"
       inkscape:connector-curvature="0" />
    <path
       style="fill:none;stroke:#000000;stroke-width:1px;stroke-linecap:butt;stroke-linejoin:miter;stroke-opacity:1"
       d="m 971.0903,608.11639 -37.46325,0"
       id="path4164"
       inkscape:connector-curvature="0" />
    <path
       style="fill:none;stroke:#000000;stroke-width:1px;stroke-linecap:butt;stroke-linejoin:miter;stroke-opacity:1"
       d="M 989.82186,575.67228 971.0903,608.11639"
       id="path4162"
       inkscape:connector-curvature="0" />
    <path
       style="fill:none;stroke:#000000;stroke-width:1px;stroke-linecap:butt;stroke-linejoin:miter;stroke-opacity:1"
       d="m 971.09027,543.22816 18.73159,32.44412"
       id="path4160"
       inkscape:connector-curvature="0" />
    <path
       style="fill:none;stroke:#000000;stroke-width:1px;stroke-linecap:butt;stroke-linejoin:miter;stroke-opacity:1"
       d="m 902.40767,575.67223 24.97552,43.25887"
       id="path4158"
       inkscape:connector-curvature="0" />
    <path
       style="fill:none;stroke:#000000;stroke-width:1px;stroke-linecap:butt;stroke-linejoin:miter;stroke-opacity:1"
       d="m 927.38319,532.4134 -24.97552,43.25888"
       id="path4156"
       inkscape:connector-curvature="0" />
    <path
       style="fill:none;stroke:#000000;stroke-width:1px;stroke-linecap:butt;stroke-linejoin:miter;stroke-opacity:1"
       d="m 977.33419,532.4134 -49.951,0"
       id="path4154"
       inkscape:connector-curvature="0" />
    <path
       style="fill:none;stroke:#000000;stroke-width:1px;stroke-linecap:butt;stroke-linejoin:miter;stroke-opacity:1"
       d="M 1002.3096,575.67228 977.33415,532.41345"
       id="path4152"
       inkscape:connector-curvature="0" />
    <path
       style="fill:none;stroke:#000000;stroke-width:1px;stroke-linecap:butt;stroke-linejoin:miter;stroke-opacity:1"
       d="m 927.38319,618.9311 49.951,0"
       id="path4150"
       inkscape:connector-curvature="0" />
    <path
       style="fill:none;stroke:#000000;stroke-width:1px;stroke-linecap:butt;stroke-linejoin:miter;stroke-opacity:1"
       d="m 1002.3097,575.67228 -24.97551,43.25887"
       id="path3737"
       inkscape:connector-curvature="0" />
    <path
       id="path4317"
       style="fill:none;stroke:#000000;stroke-width:1px;stroke-linecap:butt;stroke-linejoin:miter;stroke-opacity:1"
       d="m 616.75051,581.0794 71.80451,3e-5 m -70.24351,-10.81474 68.68252,2e-5 m -59.31674,48.66619 -10.92678,-37.8515 m 71.80451,3e-5 -10.92673,37.85147 m -6.2439,-75.70292 15.60964,27.03673 m -68.68252,-2e-5 15.60967,-27.03675 m 68.68259,32.44414 -6.24387,10.81472 m -93.65813,-10.81477 6.24388,10.81472 m 81.17038,10.81476 6.24387,-10.81471 m -81.17037,10.81467 -6.24388,-10.81472 m 93.65812,-10.81467 -6.24389,-10.81471 m -6.24389,-10.81471 6.24389,10.81471 m -93.65811,10.81466 6.24388,-10.8147 m 0,0 6.24388,-10.81469 -6.24388,10.81469 m 81.17038,32.44418 -12.48774,21.62939 m -49.951,0 -12.48776,-21.62943 m 62.43876,-64.88827 12.4877,21.62946 m -62.4387,-21.62946 -12.48776,21.62944 m 56.19486,-10.81466 -37.46321,-4e-5 m 43.70711,-10.81474 -49.951,0"
       inkscape:connector-curvature="0" />
    <path
       id="path4464"
       style="fill:none;stroke:#000000;stroke-width:1px;stroke-linecap:butt;stroke-linejoin:miter;stroke-opacity:1"
       d="m 502.79989,583.53719 -24.9755,19.66311 m 56.19487,-44.242 -21.22919,16.71366 m -34.96568,-27.52836 24.9755,19.6631 m -31.21938,-8.84838 21.22917,16.71363 m 9.99021,7.86524 24.9755,19.66314 m -14.98532,-27.52837 21.22918,16.71367 m -31.21936,-24.57893 24.9755,-19.66311 m -56.19488,44.242 21.22917,-16.71364 m -14.98529,43.25885 -18.73164,-32.44415 m 87.41425,4e-5 -18.73161,32.44411 m 0,-86.5177 18.73159,32.44417 m -68.68259,-32.44417 -18.73164,32.44413 m 12.48776,27.52836 -12.48776,-5.89894 m 18.73164,32.44415 0,-15.7305 m 49.951,3e-5 0,15.73047 m 18.73161,-32.44411 -12.48775,5.89894 m 10e-6,-33.42733 12.48772,5.89897 m -18.73159,-32.44417 0,15.73049 m -49.951,-15.73049 0,15.7305 m -18.73164,16.71363 12.48776,-5.89891"
       inkscape:connector-curvature="0" />
    <path
       id="path4558"
       style="fill:none;stroke:#000000;stroke-width:1px;stroke-linecap:butt;stroke-linejoin:miter;stroke-opacity:1"
       d="M 839.96893,597.30162 827.48119,618.931 m 0,-86.5177 12.4877,21.62947 m 4e-5,43.25885 -18.73161,10.81469 m -3e-5,-64.88823 18.7316,10.81469 m -18.7316,-10.81469 -37.46321,-4e-5 m 0,0 -18.73163,32.44414 m 0,-10e-6 18.73163,32.44414 -18.73163,-32.44414 m 56.19487,32.44414 -37.46325,0 m -6.24388,10.81469 49.951,0 m 0,-86.5177 -49.951,0 m 0,0 -24.97552,43.25888 m 0,-5e-5 24.97552,43.25887"
       inkscape:connector-curvature="0" />
    <path
       style="fill:none;stroke:#000000;stroke-width:1px;stroke-linecap:butt;stroke-linejoin:miter;stroke-opacity:1"
       d="m 1077.2362,532.4134 0,86.5177"
       id="path4565"
       inkscape:connector-curvature="0" />
    <path
       style="fill:none;stroke:#000000;stroke-width:1px;stroke-linecap:butt;stroke-linejoin:miter;stroke-opacity:1"
       d="m 1139.6749,554.04286 -12.4877,21.62942"
       id="path4569"
       inkscape:connector-curvature="0" />
    <path
       style="fill:none;stroke:#000000;stroke-width:1px;stroke-linecap:butt;stroke-linejoin:miter;stroke-opacity:1"
       d="m 1127.1872,575.67228 -24.9755,0"
       id="path4573"
       inkscape:connector-curvature="0" />
    <path
       style="fill:none;stroke:#000000;stroke-width:1px;stroke-linecap:butt;stroke-linejoin:miter;stroke-opacity:1"
       d="m 1139.6749,597.30171 -12.4877,21.62939"
       id="path4607"
       inkscape:connector-curvature="0" />
    <path
       style="fill:none;stroke:#000000;stroke-width:1px;stroke-linecap:butt;stroke-linejoin:miter;stroke-opacity:1"
       d="m 1127.1872,532.4134 12.4877,21.62946"
       id="path4611"
       inkscape:connector-curvature="0" />
    <path
       style="fill:none;stroke:#000000;stroke-width:1px;stroke-linecap:butt;stroke-linejoin:miter;stroke-opacity:1"
       d="m 1077.2362,618.9311 12.4878,0"
       id="path4638"
       inkscape:connector-curvature="0" />
    <path
       transform="matrix(1.1999959,0,0,1.1999959,-232.92556,-110.80613)"
       style="display:inline;fill:none;stroke:#000000;stroke-width:1px;stroke-linecap:butt;stroke-linejoin:miter;stroke-opacity:1"
       d="m 1133.4311,608.1164 -31.2194,-32.44412"
       id="path4642-4"
       inkscape:connector-curvature="0" />
    <path
       style="fill:none;stroke:#000000;stroke-width:1px;stroke-linecap:butt;stroke-linejoin:miter;stroke-opacity:1"
       d="m 1139.6749,597.30171 -14.0486,2.70366"
       id="path4662"
       inkscape:connector-curvature="0" />
    <path
       style="fill:none;stroke:#000000;stroke-width:1px;stroke-linecap:butt;stroke-linejoin:miter;stroke-opacity:1"
       d="m 1089.724,618.9311 0,-38.93285"
       id="path4664"
       inkscape:connector-curvature="0" />
    <path
       style="fill:none;stroke:#000000;stroke-width:1px;stroke-linecap:butt;stroke-linejoin:miter;stroke-opacity:1"
       d="m 1127.1872,532.4134 -24.9755,0"
       id="path4670"
       inkscape:connector-curvature="0" />
    <path
       style="fill:none;stroke:#000000;stroke-width:1px;stroke-linecap:butt;stroke-linejoin:miter;stroke-opacity:1"
       d="m 1077.2362,532.4134 24.9755,0"
       id="path4672"
       inkscape:connector-curvature="0" />
    <path
       style="fill:none;stroke:#000000;stroke-width:1px;stroke-linecap:butt;stroke-linejoin:miter;stroke-opacity:1"
       d="m 1089.724,543.22813 31.2194,0"
       id="path4694"
       inkscape:connector-curvature="0" />
    <path
       style="fill:none;stroke:#000000;stroke-width:1px;stroke-linecap:butt;stroke-linejoin:miter;stroke-opacity:1"
       d="m 1127.1872,554.04285 -6.2438,-10.81472"
       id="path4696"
       inkscape:connector-curvature="0" />
    <path
       style="fill:none;stroke:#000000;stroke-width:1px;stroke-linecap:butt;stroke-linejoin:miter;stroke-opacity:1"
       d="m 1120.9433,564.85757 6.2439,-10.81472"
       id="path4698"
       inkscape:connector-curvature="0" />
    <path
       style="fill:none;stroke:#000000;stroke-width:1px;stroke-linecap:butt;stroke-linejoin:miter;stroke-opacity:1"
       d="m 1089.724,564.85757 31.2193,0"
       id="path4700"
       inkscape:connector-curvature="0" />
    <path
       style="fill:none;stroke:#000000;stroke-width:1px;stroke-linecap:butt;stroke-linejoin:miter;stroke-opacity:1"
       d="m 1089.724,543.22813 0,21.62944"
       id="path4702"
       inkscape:connector-curvature="0" />
    <path
       style="fill:none;stroke:#000000;stroke-width:1px;stroke-linecap:butt;stroke-linejoin:miter;stroke-opacity:1"
       d="m 1102.2117,575.67228 23.4146,24.33309"
       id="path4706"
       inkscape:connector-curvature="0" />
  </g>
</svg>
